<svg t="1592190892376" class="icon" viewBox="0 0 1024 1024" version="1.1" xmlns="http://www.w3.org/2000/svg" p-id="18566" width="200" height="200"><path d="M512 960C264.533333 960 64 759.466667 64 512S264.533333 64 512 64s448 200.533333 448 448-200.533333 448-448 448z m0-810.666667C311.466667 149.333333 149.333333 311.466667 149.333333 512s162.133333 362.666667 362.666667 362.666667 362.666667-162.133333 362.666667-362.666667S712.533333 149.333333 512 149.333333z" p-id="18567"></path><path d="M512 576c-23.466667 0-42.666667-19.2-42.666667-42.666667v-170.666666c0-23.466667 19.2-42.666667 42.666667-42.666667s42.666667 19.2 42.666667 42.666667v170.666666c0 23.466667-19.2 42.666667-42.666667 42.666667z" p-id="18568"></path><path d="M512 682.666667m-42.666667 0a42.666667 42.666667 0 1 0 85.333334 0 42.666667 42.666667 0 1 0-85.333334 0Z" p-id="18569"></path></svg>