<svg t="1590982298503" class="icon" viewBox="0 0 1024 1024" version="1.1" xmlns="http://www.w3.org/2000/svg" p-id="4114" width="200" height="200"><path d="M512.2 64.4c-247.4 0-447.9 200.6-447.9 448s200.5 447.9 447.9 447.9 447.9-200.5 447.9-447.9-200.5-448-447.9-448z m203.5 605.9c12.5 12.5 12.5 33.1 0 45.6s-33.1 12.5-45.6 0l-158-158-158 158c-12.5 12.5-33.1 12.5-45.6 0s-12.5-33.1 0-45.6l158-158-158-158c-12.5-12.5-12.5-33.1 0-45.6s33.1-12.5 45.6 0l158 158 158-158c12.5-12.5 33.1-12.5 45.6 0s12.5 33.1 0 45.6l-158 158 158 158z" p-id="4115"></path></svg>