<svg t="1594349406971" class="icon" viewBox="0 0 1024 1024" version="1.1" xmlns="http://www.w3.org/2000/svg" p-id="13622" width="200" height="200"><path d="M415.744006 1.033277A0.992256 0.992256 0 0 1 416.747526 0.000061h189.5045c0.569344 0 1.017856 0.45056 1.001472 1.033216l-21.227518 754.803667a1.062912 1.062912 0 0 1-1.05984 1.032192h-146.933752c-0.569344 0-1.04448-0.45056-1.059839-1.032192L415.744006 1.033277zM511.510528 1024c-52.595709 0-95.231994-39.866366-95.231994-89.043963 0-49.176573 42.636285-89.042939 95.231994-89.042938 52.594685 0 95.231994 39.866366 95.231994 89.042938 0 49.177597-42.637309 89.043963-95.231994 89.043963z" p-id="13623"></path></svg>