<svg t="1592190985461" class="icon" viewBox="0 0 1024 1024" version="1.1" xmlns="http://www.w3.org/2000/svg" p-id="18705" width="200" height="200"><path d="M841.28 361.088l0 493.888c0 22.72-18.432 41.152-41.152 41.152L223.936 896.128c-22.72 0-41.152-18.432-41.152-41.152L182.784 169.024c0-22.72 18.432-41.152 41.152-41.152L608 127.872c22.72 0 54.528 13.312 70.336 29.184l133.824 133.76C827.968 306.688 841.28 338.368 841.28 361.088zM786.368 402.24 608 402.24c-22.656 0-41.152-18.432-41.152-41.152L566.848 182.72 237.632 182.72l0 658.496 548.736 0L786.368 402.24zM292.48 484.544c0-45.44 36.864-82.304 82.304-82.304s82.304 36.864 82.304 82.304S420.224 566.848 374.784 566.848 292.48 529.984 292.48 484.544zM731.52 786.368 292.48 786.368l0-82.304 82.304-82.304 54.848 54.848L594.304 512l137.216 137.216L731.52 786.368zM621.76 347.392l161.216 0c-2.56-7.296-6.464-14.592-9.408-17.536L639.296 195.648C636.288 192.64 629.056 188.736 621.76 186.176L621.76 347.392z" p-id="18706"></path></svg>