<svg t="1592191254525" class="icon" viewBox="0 0 1024 1024" version="1.1" xmlns="http://www.w3.org/2000/svg" p-id="7002" width="200" height="200"><path d="M203.093333 451.84a42.666667 42.666667 0 0 0 11.093334-85.333333l-75.093334-18.773334a42.666667 42.666667 0 1 0-22.186666 82.346667l75.093333 20.053333a33.28 33.28 0 0 0 11.093333 1.706667zM367.786667 213.333333a42.666667 42.666667 0 0 0 42.666666 31.573334 34.986667 34.986667 0 0 0 11.093334 0 42.666667 42.666667 0 0 0 29.866666-52.053334l-20.053333-75.093333a42.666667 42.666667 0 1 0-82.346667 22.186667z m206.08 426.666667A42.666667 42.666667 0 0 0 512 640l-149.333333 151.893333a94.293333 94.293333 0 0 1-130.56 0 91.733333 91.733333 0 0 1 0-130.56L384 512a42.666667 42.666667 0 1 0-60.16-60.16L170.666667 600.746667A177.92 177.92 0 1 0 423.253333 853.333333l150.613334-150.613333a42.666667 42.666667 0 0 0 0-62.72zM221.013333 281.173333a42.666667 42.666667 0 0 0 29.866667 12.373334 42.666667 42.666667 0 0 0 30.293333-12.373334 42.666667 42.666667 0 0 0 0-60.16L226.133333 165.973333A42.666667 42.666667 0 0 0 165.973333 226.133333z m686.08 312.746667l-75.093333-20.053333a42.666667 42.666667 0 1 0-21.333333 82.346666l75.093333 20.053334h11.093333a42.666667 42.666667 0 0 0 11.093334-85.333334zM656.213333 810.666667a42.666667 42.666667 0 0 0-52.48-29.866667 42.666667 42.666667 0 0 0-29.866666 52.053333l20.053333 75.093334a42.666667 42.666667 0 0 0 42.666667 31.573333 49.066667 49.066667 0 0 0 11.093333 0 42.666667 42.666667 0 0 0 30.293333-52.48z m146.773334-66.986667a42.666667 42.666667 0 0 0-60.16 60.16l55.04 55.04a42.666667 42.666667 0 0 0 60.16 0 42.666667 42.666667 0 0 0 0-60.16zM904.533333 298.666667a177.493333 177.493333 0 0 0-303.786666-128l-150.613334 151.893333A42.666667 42.666667 0 1 0 512 384l149.333333-151.893333a94.293333 94.293333 0 0 1 130.56 0 91.733333 91.733333 0 0 1 0 130.56L640 512a42.666667 42.666667 0 0 0 0 60.16 42.666667 42.666667 0 0 0 60.16 0L853.333333 423.253333A178.773333 178.773333 0 0 0 904.533333 298.666667z" p-id="7003"></path></svg>