<svg t="1590982606258" class="icon" viewBox="0 0 1024 1024" version="1.1" xmlns="http://www.w3.org/2000/svg" p-id="4251" width="200" height="200"><path d="M512 85.333333a426.666667 426.666667 0 1 0 426.666667 426.666667A427.157333 427.157333 0 0 0 512 85.333333z m0 810.666667a384 384 0 1 1 384-384 384.426667 384.426667 0 0 1-384 384z" p-id="4252"></path><path d="M633.749333 390.250667a21.333333 21.333333 0 0 0-30.165333 0L512 481.834667l-91.584-91.584a21.333333 21.333333 0 0 0-30.165333 30.165333L481.834667 512l-91.584 91.584a21.333333 21.333333 0 1 0 30.165333 30.165333L512 542.165333l91.584 91.584a21.333333 21.333333 0 0 0 30.165333-30.165333L542.165333 512l91.584-91.584a21.333333 21.333333 0 0 0 0-30.165333z" p-id="4253"></path></svg>